HIERARCHY
ROOT Hips
{
	OFFSET 0.000000 0.000000 0.000000 
	CHANNELS 6 Xposition Yposition Zposition Zrotation Yrotation Xrotation
	JOINT LeftUpLeg
	{
		OFFSET 1.363060 -1.794630 0.839290 
		CHANNELS 3 Zrotation Yrotation Xrotation
		JOINT LeftLeg
		{
			OFFSET 2.448110 -6.726130 0.000000 
			CHANNELS 3 Zrotation Yrotation Xrotation
			JOINT LeftFoot
			{
				OFFSET 2.562200 -7.039590 0.000000 
				CHANNELS 3 Zrotation Yrotation Xrotation
				JOINT LeftToeBase
				{
					OFFSET 0.157640 -0.433110 2.322550 
					CHANNELS 3 Zrotation Yrotation Xrotation
					End Site
					{
						OFFSET 0.000000 0.000000 0.000000 
					}
				}
			}
		}
	}
	JOINT RightUpLeg
	{
		OFFSET -1.305520 -1.794630 0.839290 
		CHANNELS 3 Zrotation Yrotation Xrotation
		JOINT RightLeg
		{
			OFFSET -2.542530 -6.985550 0.000000 
			CHANNELS 3 Zrotation Yrotation Xrotation
			JOINT RightFoot
			{
				OFFSET -2.568260 -7.056230 0.000000 
				CHANNELS 3 Zrotation Yrotation Xrotation
				JOINT RightToeBase
				{
					OFFSET -0.164730 -0.452590 2.363150 
					CHANNELS 3 Zrotation Yrotation Xrotation
					End Site
					{
						OFFSET 0.000000 0.000000 0.000000 
					}
				}
			}
		}
	}
	JOINT Spine
	{
		OFFSET 0.028270 2.035590 -0.193380 
		CHANNELS 3 Zrotation Yrotation Xrotation
		JOINT Spine1
		{
			OFFSET 0.056720 2.048850 -0.042750 
			CHANNELS 3 Zrotation Yrotation Xrotation
			JOINT Neck1
			{
				OFFSET -0.054170 1.746240 0.172020 
				CHANNELS 3 Zrotation Yrotation Xrotation
				JOINT Head
				{
					OFFSET 0.104070 1.761360 -0.123970 
					CHANNELS 3 Zrotation Yrotation Xrotation
					End Site
					{
						OFFSET 0.000000 0.000000 0.000000 
					}
				}
			}
			JOINT LeftArm
			{
				OFFSET 3.362410 1.200890 -0.311210 
				CHANNELS 3 Zrotation Yrotation Xrotation
				JOINT LeftForeArm
				{
					OFFSET 4.983000 -0.000000 -0.000000 
					CHANNELS 3 Zrotation Yrotation Xrotation
					JOINT LeftHand
					{
						OFFSET 3.483560 -0.000000 -0.000000 
						CHANNELS 3 Zrotation Yrotation Xrotation
						JOINT LeftHandIndex1
						{
							OFFSET 0.715260 -0.000000 -0.000000 
							CHANNELS 3 Zrotation Yrotation Xrotation
							End Site
							{
								OFFSET 0.000000 0.000000 0.000000 
							}
						}
					}
				}
			}
			JOINT RightArm
			{
				OFFSET -3.136600 1.374050 -0.404650 
				CHANNELS 3 Zrotation Yrotation Xrotation
				JOINT RightForeArm
				{
					OFFSET -5.241900 -0.000000 -0.000000 
					CHANNELS 3 Zrotation Yrotation Xrotation
					JOINT RightHand
					{
						OFFSET -3.444170 -0.000000 -0.000000 
						CHANNELS 3 Zrotation Yrotation Xrotation
						JOINT RightHandIndex1
						{
							OFFSET -0.622530 -0.000000 -0.000000 
							CHANNELS 3 Zrotation Yrotation Xrotation
							End Site
							{
								OFFSET 0.000000 0.000000 0.000000 
							}
						}
					}
				}
			}
		}
	}
}
MOTION
Frames: 18
Frame Time: 0.041667
-12.185282 17.456425 17.584694 -177.135868 -13.006171 -175.388487 -3.251663 -17.747218 -20.202466 3.366371 11.361315 33.669381 -4.052039 -38.883846 -6.928119 1.284800 7.182800 20.258000 7.593558 19.940613 -17.741389 -11.251692 -17.215843 61.636059 3.237157 27.699144 21.240898 -1.351400 -7.359300 20.784200 0.806124 -4.791192 -2.888174 4.282498 -2.446401 1.925996 11.181894 -17.106987 22.542767 1.473200 -7.774300 7.532300 -99.127415 -11.146203 75.941554 43.813848 -51.789787 -15.596498 -1.911491 1.934832 -8.292143 -7.125000 0.000000 0.000000 97.423168 -30.585608 24.009650 -48.619776 52.055435 -22.155113 0.756176 -1.286912 1.093735 7.125000 0.000000 0.000000 
-12.097475 17.442764 17.626512 -177.039900 -14.426609 -175.676997 -2.889804 -18.541160 -20.341046 3.363184 11.338883 33.633936 -4.322840 -39.370141 -6.041499 1.288900 7.193600 20.290200 8.563971 20.136932 -16.472735 -11.134106 -17.131565 61.131893 3.270674 28.004622 21.840966 -1.554600 -7.869100 22.317100 0.703632 -4.494521 -2.854319 4.126593 -2.301770 2.061392 11.197373 -16.927957 22.826264 1.472700 -7.664300 7.613500 -99.026719 -11.192992 75.338365 44.099829 -51.947873 -15.795907 -1.888232 1.931721 -8.454789 -7.125000 0.000000 0.000000 96.859646 -30.729534 25.473096 -48.003382 51.667284 -21.611767 0.765269 -1.323527 1.972662 7.125000 0.000000 0.000000 
-12.007790 17.427747 17.670416 -176.917616 -15.770475 -175.989689 -2.512303 -19.277155 -20.511314 3.366806 11.327899 33.634288 -4.595742 -39.829101 -5.109278 1.299500 7.222000 20.374800 9.612461 20.360630 -15.227446 -10.999282 -17.035170 60.570840 3.272006 28.152741 22.287881 -1.852600 -8.552000 24.403700 0.603171 -4.182086 -2.812990 3.977326 -2.148925 2.183207 11.196934 -16.713159 23.125876 1.469800 -7.535700 7.699800 -98.902393 -11.209282 74.689871 44.418280 -52.119973 -16.019291 -1.859082 1.930836 -8.633954 -7.125000 0.000000 0.000000 96.174493 -30.840061 27.112045 -47.551419 51.339798 -21.185376 0.775069 -1.353329 2.715771 7.125000 0.000000 0.000000 
-11.916020 17.411896 17.716301 -176.778694 -17.047927 -176.319757 -2.129016 -19.971096 -20.708735 3.374890 11.324741 33.658948 -4.866431 -40.252999 -4.138908 1.316200 7.266600 20.507500 10.713472 20.593260 -14.020236 -10.849997 -16.928762 59.964647 3.213135 28.057284 22.610534 -2.268700 -9.404700 27.069600 0.502705 -3.864686 -2.768344 3.834828 -1.993447 2.291092 11.171681 -16.460419 23.424936 1.463000 -7.389900 7.779000 -98.759342 -11.184581 73.976300 44.769338 -52.304896 -16.265539 -1.828073 1.929176 -8.792371 -7.125000 0.000000 0.000000 95.357801 -30.909667 28.932306 -47.242630 51.067894 -20.860965 0.786063 -1.375702 3.328839 7.125000 0.000000 0.000000 
-11.822373 17.395315 17.764063 -176.630904 -18.269556 -176.659239 -1.746953 -20.636550 -20.927362 3.384044 11.324102 33.691085 -5.131122 -40.634739 -3.129683 1.338500 7.325500 20.683300 11.840479 20.816691 -12.863097 -10.689026 -16.814770 59.325934 3.099327 27.721259 22.779821 -2.808000 -10.377500 30.208000 0.397195 -3.544432 -2.727381 3.691653 -1.836066 2.374076 11.126742 -16.183348 23.735341 1.450400 -7.232300 7.857400 -98.591616 -11.107793 73.211735 45.146991 -52.497491 -16.530424 -1.791854 1.927710 -8.899492 -7.125000 0.000000 0.000000 94.420614 -30.938070 30.903087 -47.057594 50.846574 -20.623483 0.798686 -1.390551 3.841116 7.125000 0.000000 0.000000 
-11.726536 17.378108 17.813598 -176.480429 -19.447783 -177.004010 -1.367399 -21.269721 -21.165880 3.390534 11.321203 33.713278 -5.394956 -40.991143 -2.073422 1.369400 7.406000 20.923900 12.973478 21.011568 -11.764491 -10.520500 -16.695858 58.670350 2.953441 27.205812 22.774698 -3.426500 -11.355500 33.488300 0.286853 -3.227965 -2.690542 3.548077 -1.680168 2.434031 11.053888 -15.883089 24.052816 1.429300 -7.064300 7.932100 -98.399754 -10.973605 72.394464 45.557885 -52.701750 -16.820387 -1.752813 1.927549 -8.941153 -7.125000 0.000000 0.000000 93.364966 -30.916953 33.002312 -46.969074 50.666348 -20.455372 0.812687 -1.397375 4.314159 7.125000 0.000000 0.000000 
-11.628509 17.361422 17.865010 -176.326443 -20.581199 -177.350461 -0.990591 -21.864979 -21.414147 3.390639 11.310788 33.707195 -5.655765 -41.319643 -0.967019 1.406400 7.501200 21.209000 14.091501 21.190854 -10.731269 -10.349810 -16.575580 58.017513 2.796961 26.569413 22.574160 -4.088400 -12.277100 36.719500 0.168198 -2.911935 -2.660916 3.395203 -1.524131 2.464940 10.947809 -15.565265 24.370493 1.395800 -6.888500 7.999900 -98.179180 -10.777636 71.531962 46.002737 -52.916770 -17.136031 -1.713733 1.927928 -8.941175 -7.125000 0.000000 0.000000 92.206554 -30.845225 35.200851 -46.946032 50.516099 -20.336458 0.826644 -1.396770 4.814253 7.125000 0.000000 0.000000 
-11.528292 17.345362 17.918403 -176.171497 -21.674441 -177.694019 -0.612896 -22.414559 -21.670133 3.380639 11.287992 33.655564 -5.911124 -41.626310 0.167973 1.439500 7.585200 21.461200 15.179381 21.342844 -9.765058 -10.181121 -16.456659 57.382047 2.681382 25.961542 22.088778 -4.704400 -13.042900 39.529500 0.045989 -2.595877 -2.634027 3.238119 -1.367645 2.476579 10.829019 -15.234377 24.681663 1.358500 -6.706800 8.063600 -97.933654 -10.540756 70.645525 46.470479 -53.136509 -17.469939 -1.673624 1.929018 -8.930140 -7.125000 0.000000 0.000000 90.939785 -30.713745 37.492636 -46.966389 50.387943 -20.255850 0.838938 -1.390186 5.382510 7.125000 0.000000 0.000000 
-11.425468 17.330033 17.974300 -176.019061 -22.720938 -178.034911 -0.237190 -22.911578 -21.922893 3.357586 11.248783 33.543147 -6.156336 -41.907144 1.316676 1.464600 7.648300 21.651000 16.223158 21.443004 -8.869222 -10.017341 -16.341560 56.773871 2.656072 25.544709 21.216035 -5.178700 -13.582200 41.588900 -0.079161 -2.275913 -2.610301 3.079687 -1.208776 2.463454 10.714088 -14.897135 24.988853 1.324000 -6.521600 8.128100 -97.669169 -10.263928 69.730764 46.964169 -53.362848 -17.825264 -1.633747 1.931680 -8.919997 -7.125000 0.000000 0.000000 89.569660 -30.522844 39.863907 -47.014353 50.276964 -20.205796 0.848919 -1.379706 6.042101 7.125000 0.000000 0.000000 
-11.319933 17.316163 18.032907 -175.870311 -23.713503 -178.366759 0.136489 -23.351017 -22.168425 3.319458 11.190219 33.359473 -6.381733 -42.154413 2.431638 1.471700 7.666000 21.704100 17.207312 21.478534 -8.056557 -9.860341 -16.231662 56.200098 2.722980 25.364570 19.942673 -5.490200 -13.915400 42.899700 -0.203627 -1.950989 -2.589837 2.928686 -1.047269 2.431540 10.589333 -14.554083 25.283618 1.288100 -6.334700 8.188800 -97.387323 -9.954446 68.792519 47.482715 -53.595269 -18.202528 -1.593986 1.937108 -8.935855 -7.125000 0.000000 0.000000 88.085631 -30.270670 42.331143 -47.077104 50.179479 -20.182437 0.856004 -1.368612 6.797014 7.125000 0.000000 0.000000 
-11.211686 17.304274 18.094644 -175.725983 -24.645944 -178.686313 0.506923 -23.738176 -22.397362 3.265381 11.110279 33.098357 -6.575889 -42.355415 3.462545 1.453000 7.619300 21.563700 18.121403 21.418019 -7.339346 -9.708414 -16.127092 55.657503 2.873131 25.444089 18.258193 -5.620400 -14.050100 43.438600 -0.328677 -1.611128 -2.570212 2.779854 -0.877849 2.387371 10.495006 -14.211678 25.547573 1.266400 -6.148400 8.241800 -97.090994 -9.626612 67.850929 48.012038 -53.825441 -18.590046 -1.550259 1.943988 -8.988338 -7.125000 0.000000 0.000000 86.511512 -29.957473 44.864105 -47.142514 50.093413 -20.180491 0.860499 -1.359782 7.621255 7.125000 0.000000 0.000000 
-11.100936 17.295202 18.159613 -175.594594 -25.504963 -178.978710 0.866759 -24.075084 -22.609363 3.195344 11.007814 32.755816 -6.724616 -42.498649 4.321732 1.395100 7.472500 21.122900 18.946186 21.244343 -6.737164 -9.557825 -16.026331 55.136840 3.073964 25.730583 16.162472 -5.557300 -13.985100 43.177900 -0.455965 -1.254455 -2.552104 2.635578 -0.700130 2.339358 10.408965 -13.874125 25.780282 1.249700 -5.965700 8.285400 -96.792147 -9.297616 66.892724 48.530078 -54.043838 -18.974826 -1.493087 1.955597 -9.051800 -7.125000 0.000000 0.000000 84.840954 -29.572894 47.476560 -47.207507 50.019952 -20.200708 0.863263 -1.355366 8.489781 7.125000 0.000000 0.000000 
-10.987892 17.289362 18.227919 -175.474294 -26.297929 -179.238815 1.218130 -24.383575 -22.804528 3.110848 10.882976 32.334866 -6.819407 -42.572817 4.961802 1.294600 7.208900 20.335900 19.677520 20.925689 -6.264030 -9.403461 -15.926539 54.621818 3.274357 26.117017 13.709213 -5.342600 -13.759500 42.282400 -0.591720 -0.875689 -2.540185 2.481301 -0.511055 2.286283 10.344235 -13.547751 25.971299 1.240500 -5.789100 8.313900 -96.481964 -8.960164 65.944448 49.033389 -54.245876 -19.346987 -1.440081 1.961374 -9.084421 -7.125000 0.000000 0.000000 83.104762 -29.130401 50.142160 -47.278026 49.964012 -20.247796 0.865063 -1.356248 9.363987 7.125000 0.000000 0.000000 
-10.872867 17.287380 18.299770 -175.368214 -27.035269 -179.453785 1.557467 -24.675665 -22.996045 3.014483 10.738413 31.846168 -6.860131 -42.578505 5.363461 1.154300 6.821400 19.187400 20.306836 20.449823 -5.930730 -9.241288 -15.824589 54.095241 3.413061 26.442327 11.020884 -5.030100 -13.417600 40.952500 -0.731829 -0.481517 -2.528786 2.326100 -0.314622 2.243948 10.295406 -13.230795 26.119255 1.238000 -5.618200 8.328600 -96.180004 -8.636397 64.998030 49.504674 -54.428802 -19.699324 -1.390238 1.966956 -9.068839 -7.125000 0.000000 0.000000 81.290765 -28.607639 52.862669 -47.354337 49.927433 -20.320951 0.866583 -1.361528 10.204457 7.125000 0.000000 0.000000 
-10.755964 17.289570 18.375168 -175.264947 -27.728430 -179.622489 1.899056 -24.964404 -23.197592 2.909368 10.577290 31.302148 -6.846683 -42.502344 5.565259 0.984200 6.314600 17.699900 20.850503 19.813364 -5.738146 -9.068606 -15.716851 53.540681 3.459808 26.624535 8.189887 -4.646000 -12.973700 39.270100 -0.883465 -0.065060 -2.525459 2.148039 -0.106491 2.207403 10.275097 -12.934528 26.220786 1.242500 -5.457100 8.325900 -95.873752 -8.318914 64.088434 49.934943 -54.587316 -20.022997 -1.345019 1.970305 -8.986344 -7.125000 0.000000 0.000000 79.438080 -28.018159 55.596649 -47.445858 49.915525 -20.423996 0.868178 -1.369641 10.993446 7.125000 0.000000 0.000000 
-10.637185 17.295202 18.454006 -175.136199 -28.389606 -179.754395 2.271582 -25.247966 -23.432850 2.799589 10.405917 30.723379 -6.786144 -42.355051 5.582781 0.797200 5.699000 15.913500 21.348740 19.022126 -5.672726 -8.883126 -15.599606 52.943119 3.401905 26.615819 5.261452 -4.200800 -12.423000 37.245200 -1.033447 0.367771 -2.525759 1.951049 0.110437 2.183940 10.274557 -12.659285 26.288271 1.251800 -5.305900 8.314800 -95.563349 -8.005070 63.223566 50.336554 -54.729301 -20.328131 -1.305626 1.973405 -8.830238 -7.125000 0.000000 0.000000 77.533548 -27.348299 58.327929 -47.565610 49.933267 -20.560953 0.870196 -1.378124 11.714500 7.125000 0.000000 0.000000 
-10.516528 17.304587 18.536808 -174.986622 -29.036338 -179.847316 2.665278 -25.524795 -23.721798 2.690515 10.231990 30.137538 -6.679065 -42.112247 5.499749 0.612100 5.007500 13.930000 21.801534 18.108558 -5.726931 -8.687247 -15.472491 52.303375 3.237099 26.366916 2.353059 -3.750700 -11.821100 35.101800 -1.184937 0.812922 -2.535370 1.730819 0.334341 2.162377 10.290356 -12.406664 26.326349 1.263700 -5.165000 8.296300 -95.245055 -7.693967 62.433959 50.703200 -54.854310 -20.613780 -1.272680 1.980150 -8.626234 -7.125000 0.000000 0.000000 75.608678 -26.604843 60.991751 -47.716068 49.980076 -20.726460 0.872688 -1.385342 12.397455 7.125000 0.000000 0.000000 
-10.393681 17.316476 18.623260 -174.783464 -29.665017 -179.922675 3.103646 -25.767794 -24.081640 2.587082 10.065721 29.575400 -6.512329 -41.717124 5.384880 0.445500 4.282300 11.872100 22.258382 17.125846 -5.871194 -8.483089 -15.334679 51.623167 2.980571 25.882254 -0.492641 -3.306300 -11.175100 32.872800 -1.322312 1.269744 -2.548944 1.496940 0.565406 2.150198 10.310716 -12.175357 26.328271 1.275900 -5.035500 8.268600 -94.924814 -7.385820 61.729704 51.038708 -54.967337 -20.886773 -1.244038 1.994698 -8.410405 -7.125000 0.000000 0.000000 73.656395 -25.784072 63.559016 -47.898076 50.054495 -20.917041 0.875544 -1.391118 13.060686 7.125000 0.000000 0.000000 
